<svg xmlns="http://www.w3.org/2000/svg" width="12" height="10" fill="none"><path fill="#803A2C" d="m1.333 3.75 1-2.812h7.334l1 2.812m-1 3.125c-.266 0-.52-.099-.707-.275a.9.9 0 0 1-.293-.662c0-.25.105-.488.293-.663C9.147 5.099 9.4 5 9.667 5s.52.099.707.275a.9.9 0 0 1 .293.662.9.9 0 0 1-.293.663 1.03 1.03 0 0 1-.707.275m-7.334 0c-.265 0-.52-.099-.707-.275a.9.9 0 0 1-.293-.662c0-.25.106-.488.293-.663.188-.176.442-.275.707-.275.266 0 .52.099.707.275a.9.9 0 0 1 .293.662.9.9 0 0 1-.293.663 1.03 1.03 0 0 1-.707.275m8.28-6.25C10.48.263 10.107 0 9.667 0H2.333c-.44 0-.813.263-.946.625L0 4.375v5c0 .166.07.325.195.442A.7.7 0 0 0 .667 10h.666a.7.7 0 0 0 .472-.183A.6.6 0 0 0 2 9.375V8.75h8v.625c0 .166.07.325.195.442a.7.7 0 0 0 .472.183h.666a.7.7 0 0 0 .472-.183.6.6 0 0 0 .195-.442v-5z"/></svg>