<svg xmlns="http://www.w3.org/2000/svg" width="100" height="10" fill="none" viewBox="0 0 50 50"><path stroke="#fff" stroke-width="2" d="M20.297 48.438a18.925 18.925 0 1 0-17.08-10.763c.406.851.548 1.812.307 2.72l-.776 2.903a3.076 3.076 0 0 0 3.764 3.766l2.903-.778a3.95 3.95 0 0 1 2.72.307 18.9 18.9 0 0 0 8.164 1.845z"/><path stroke="#fff" stroke-width="2" d="m39.221 30.7.469-.206c.856-.39 1.817-.537 2.727-.293l1.126.3a3.076 3.076 0 0 0 3.767-3.764l-.303-1.126c-.244-.91-.095-1.87.295-2.727a15.378 15.378 0 1 0-28.189-12.306"/><path stroke="#fff" stroke-linecap="round" stroke-linejoin="round" stroke-width="4" d="M12.06 29.513h.023m8.235 0h.02m8.238 0h.021"/></svg>