<svg xmlns="http://www.w3.org/2000/svg" width="93" height="76" fill="none"><path fill="#803A2C" d="M83.073 71.67H49.73v3.613h33.342z"/><path fill="#fff" d="M53.304 72.445c.688 0 1.125.4 1.125 1 0 .598-.437.999-1.125.999-.689 0-1.126-.4-1.126-1s.437-.999 1.126-.999m0 1.807c.546 0 .894-.32.894-.808s-.348-.808-.894-.808c-.547 0-.898.32-.898.808s.354.808.898.808M56.49 72.473h.228l1.363 1.566h.037v-1.567h.225v1.944h-.229l-1.36-1.564h-.036v1.564h-.229zM62.816 72.473h1.059c.527 0 .774.157.774.507 0 .197-.102.342-.315.414v.022c.257.061.388.22.388.464 0 .366-.243.536-.772.536h-1.135zm.228.191v.661h.825c.384 0 .55-.1.55-.327 0-.228-.166-.334-.55-.334zm0 .838v.723h.9c.382 0 .55-.112.55-.362s-.168-.36-.55-.36zM67.778 72.445c.688 0 1.125.4 1.125 1 0 .598-.437.999-1.125.999-.689 0-1.126-.4-1.126-1s.438-.999 1.126-.999m0 1.807c.546 0 .894-.32.894-.808s-.348-.808-.894-.808c-.547 0-.898.32-.898.808s.354.808.898.808M71.514 72.473h.484l.876 1.943h-.243l-.22-.5h-1.307l-.223.5h-.24zm.816 1.26-.465-1.057h-.215l-.468 1.058zM74.845 72.473h1.078c.527 0 .772.197.772.586 0 .366-.203.566-.585.566h-.067c.31.197.405.589.664.589h.22v.203h-.27c-.469 0-.483-.73-1.09-.778h-.493v.778h-.228zm.228.191v.792h.844c.388 0 .549-.125.549-.397s-.161-.395-.549-.395zM78.903 72.473h1.003c.621 0 1.017.377 1.017.971s-.395.972-1.017.972h-1.003zm.228.191v1.56h.775c.48 0 .785-.297.785-.78s-.307-.78-.785-.78z"/><path fill="#000" d="M60.587 60.64q2.22-.939 3.532-2.716.2-.273.369-.567v8.962l-3.902-5.68m-1.716-6.805q0 1.273-.908 2.028-.91.753-2.59.754h-4.306v-5.631h4.272q1.648 0 2.59.687.943.686.943 2.094zm12.044 9.452v-3.72h11.304v-5.13H70.915v-3.553h12.207v-5.53h-2.129a9.5 9.5 0 0 0 1.277-2.339q.79-2.061.79-4.91V25.097H76.4v13.207q0 2.481-1.169 3.654-1.168 1.173-3.137 1.173t-3.14-1.224q-1.167-1.223-1.167-3.77v-13.04h-6.662v13.174q0 2.75.758 4.777.756 2.028 2.17 3.352.211.197.437.379v2.599a6.4 6.4 0 0 0-1.144-1.478q-1.178-1.206-3.06-1.876-1.885-.67-4.61-.67H47.7v-5.171h11.136v-5.43H47.701v-3.956h12.314v-5.7h-18.84v20.257h-2.927v13.207q0 2.482-1.168 3.654-1.17 1.174-3.138 1.174-1.97 0-3.138-1.223t-1.168-3.771v-13.04H4v5.698h7.065v17.767h6.527V51.054h5.382v7.476q0 2.75.757 4.777t2.17 3.352q1.413 1.324 3.432 1.96 2.019.638 4.542.638t4.559-.638q2.034-.636 3.465-1.96 1.429-1.325 2.22-3.386.25-.652.42-1.38v6.927h6.528v-7.106h2.859l4.743 7.106h24.896v-5.53h-12.65zM47.89 4l1.24-2.8h.855l1.24 2.8h-.48l-.287-.668h-1.8L48.37 4zm.92-1.028h1.495L49.719 1.6h-.32zm2.614-.372c0-.864.656-1.44 1.64-1.44S54.7 1.736 54.7 2.6s-.652 1.44-1.636 1.44-1.64-.576-1.64-1.44m.456 0c0 .648.484 1.068 1.184 1.068s1.18-.42 1.18-1.068-.48-1.064-1.18-1.064-1.184.416-1.184 1.064m4.5 1.4V1.2h.448v2.408h1.912V4zm2.72 0 1.24-2.8h.856l1.24 2.8h-.48l-.288-.668h-1.8L59.58 4zm.92-1.028h1.496L60.93 1.6h-.32zM62.956 4V1.2h1.5c.876 0 1.456.536 1.456 1.4S65.33 4 64.455 4zm1.5-2.424h-1.052v2.048h1.052c.592 0 1-.376 1-1.024s-.408-1.024-1-1.024M66.392 2.6c0-.864.656-1.44 1.64-1.44s1.636.576 1.636 1.44-.652 1.44-1.636 1.44-1.64-.576-1.64-1.44m.456 0c0 .648.484 1.068 1.184 1.068s1.18-.42 1.18-1.068-.48-1.064-1.18-1.064-1.184.416-1.184 1.064M71.35 4V1.2h1.5c.876 0 1.456.536 1.456 1.4S73.725 4 72.85 4zm1.5-2.424h-1.052v2.048h1.052c.592 0 1-.376 1-1.024s-.408-1.024-1-1.024M74.507 4l1.24-2.8h.856l1.24 2.8h-.48l-.288-.668h-1.8L74.987 4zm.92-1.028h1.496L76.335 1.6h-.32zM29.478 10V7.2h2.44v.392h-1.992v.744h1.672v.392h-1.672v.88h1.992V10zm5.141-.82c0-.364-.38-.388-.828-.392-.612-.008-1.352.02-1.352-.8 0-.664.604-.82 1.328-.828.412-.004.8.04 1.156.112v.392a6 6 0 0 0-1.26-.136c-.412.012-.776.116-.776.472 0 .388.404.4.94.4s1.24-.012 1.24.8c0 .564-.476.848-1.424.836a8 8 0 0 1-1.204-.124v-.4c.22.032.744.144 1.256.148.608.004.924-.148.924-.48m2.13.82V7.592h-1.36V7.2h3.172v.392h-1.364V10zm1.613 0 1.24-2.8h.856l1.24 2.8h-.48l-.288-.668h-1.8l-.288.668zm.92-1.028h1.496L40.19 7.6h-.32zm4.254.692c.424 0 .912-.052 1.216-.136v.392a4.6 4.6 0 0 1-1.06.12l-.056.1c.16.076.264.228.264.392 0 .3-.272.468-.788.428v-.288c.224.032.376-.064.376-.24 0-.1-.112-.228-.264-.292l.068-.112c-.844-.088-1.396-.62-1.396-1.428 0-.888.668-1.44 1.656-1.44.564 0 .92.048 1.2.12v.392c-.304-.084-.792-.136-1.216-.136-.708 0-1.184.392-1.184 1.064s.476 1.064 1.184 1.064m3.165-2.94c-.088-.056-.18-.116-.288-.116-.104 0-.22.052-.352.2v-.38c.144-.16.264-.216.368-.216.148 0 .268.1.392.168.06.036.136.064.22.064.112 0 .24-.048.384-.188v.38c-.16.152-.296.204-.412.204a.6.6 0 0 1-.312-.116M45.073 10l1.24-2.8h.856l1.24 2.8h-.48l-.288-.668h-1.8l-.288.668zm.92-1.028h1.496L46.901 7.6h-.32zm2.614-.372c0-.864.656-1.44 1.64-1.44s1.636.576 1.636 1.44-.652 1.44-1.636 1.44-1.64-.576-1.64-1.44m.456 0c0 .648.484 1.068 1.184 1.068s1.18-.42 1.18-1.068-.48-1.064-1.18-1.064-1.184.416-1.184 1.064m4.501 1.4V7.2h1.532c.784 0 1.16.236 1.16.752 0 .26-.14.468-.424.58v.04c.344.092.532.324.532.648 0 .532-.368.78-1.16.78zm1.52-2.424h-1.072v.82h1.072c.5 0 .716-.124.716-.408 0-.288-.216-.412-.716-.412m.108 1.164h-1.18v.884h1.18c.496 0 .716-.136.716-.444s-.216-.44-.716-.44M57.005 10V7.2h1.572c.785 0 1.16.304 1.16.872 0 .504-.268.824-.784.824.308.292.468.704.764.704h.333v.4h-.436c-.672 0-.708-.976-1.448-1.076h-.712V10zm1.56-2.424h-1.111v.992h1.111c.513 0 .717-.16.717-.496s-.204-.496-.716-.496M60.409 8.6c0-.864.656-1.44 1.64-1.44s1.636.576 1.636 1.44-.652 1.44-1.636 1.44-1.64-.576-1.64-1.44m.456 0c0 .648.484 1.068 1.184 1.068s1.18-.42 1.18-1.068-.48-1.064-1.18-1.064-1.184.416-1.184 1.064m3.302 0c0-.864.656-1.44 1.64-1.44s1.636.576 1.636 1.44-.652 1.44-1.636 1.44-1.64-.576-1.64-1.44m.456 0c0 .648.484 1.068 1.184 1.068s1.18-.42 1.18-1.068-.48-1.064-1.18-1.064-1.184.416-1.184 1.064m3.462 1.4V7.2h.448v1.48h.04l1.736-1.48h.612l-1.5 1.264c.676.192 1.004 1.12 1.416 1.12h.332V10h-.436c-.684 0-.896-1.148-1.684-1.224l-.516.436V10zm3.605 0V7.2h.448v2.408h1.912V10zm3 0V7.2h.448V10zm1.246 0V7.2h.448l1.704 2.052h.064V7.2h.448V10h-.448l-1.7-2.048h-.068V10zm-22.258 6v-2.8h1.5c.876 0 1.456.536 1.456 1.4s-.58 1.4-1.456 1.4zm1.5-2.424h-1.052v2.048h1.052c.592 0 1-.376 1-1.024s-.408-1.024-1-1.024M57.275 16v-2.8h2.44v.392h-1.992v.744h1.672v.392h-1.672v.88h1.992V16zm4.16 0v-2.8h.448l1.196 1.496h.104L64.38 13.2h.448V16h-.448v-2.068h-.06l-.972 1.22h-.432l-.972-1.22h-.06V16zm4.192 0v-2.8h2.44v.392h-1.992v.744h1.672v.392h-1.672v.88h1.992V16zm4.16 0v-2.408h-1.36V13.2H71.6v.392h-1.364V16zm2.293 0v-2.8h1.572c.784 0 1.16.304 1.16.872 0 .504-.268.824-.784.824.308.292.468.704.764.704h.332v.4h-.436c-.672 0-.708-.976-1.448-1.076h-.712V16zm1.56-2.424h-1.112v.992h1.112c.512 0 .716-.16.716-.496s-.204-.496-.716-.496m2.598-.6.62-.888h.528l.62.888h-.504l-.332-.516h-.096l-.332.516zm-.756 1.624c0-.864.656-1.44 1.64-1.44s1.636.576 1.636 1.44-.652 1.44-1.636 1.44-1.64-.576-1.64-1.44m.456 0c0 .648.484 1.068 1.184 1.068s1.18-.42 1.18-1.068-.48-1.064-1.18-1.064-1.184.416-1.184 1.064"/><path stroke="#803A2C" stroke-width=".5" d="M22.787 25.007h69.375M83.15 0v41.802"/></svg>