<svg xmlns="http://www.w3.org/2000/svg" width="482" height="150" fill="none"><g clip-path="url(#a)"><path fill="#1E1E1C" d="M239.522 39.468c-1.921-.155-3.648-1.5-4.75-3.692-.472-.938-.858-1.69-1.202-2.33l-1.266.97a4.27 4.27 0 0 1-2.655.917c-1.296 0-2.67-.567-3.759-1.552l-.302-.294c-1.583-1.733-2.41-4.465-.494-6.396.369-.374.702-.72 1.016-1.053-.672-.355-1.413-.74-2.277-1.183l-.191-.097c-2.335-1.202-3.695-3.026-3.734-5v-.045l.005-.23c.111-1.957 1.483-3.684 3.768-4.744.98-.459 1.768-.841 2.445-1.196a50 50 0 0 0-1.074-1.26c-1.713-1.934-1.024-4.517.411-6.223.161-.17.291-.297.416-.423l.084-.08c1.071-.9 2.396-1.409 3.645-1.409.938 0 1.824.275 2.64.815q.774.51 1.444.968c.316-.608.663-1.307 1.077-2.176 1.049-2.206 2.746-3.57 4.644-3.736.186-.008.32-.01.453-.014l.28.009c1.935.151 3.659 1.51 4.745 3.733.436.888.791 1.593 1.105 2.195.458-.308.941-.635 1.471-.982a4.8 4.8 0 0 1 2.66-.812c1.33 0 2.687.556 3.726 1.527.061.058.113.11.166.165 1.513 1.538 2.377 4.198.686 6.388l-1.022 1.337c.767.402 1.597.82 2.33 1.188 2.318 1.167 3.684 2.955 3.731 4.91l.005.058v.204c-.089 1.959-1.457 3.72-3.748 4.844-1.018.496-1.782.875-2.415 1.2.328.363.68.742 1.058 1.152 1.763 1.912 1.035 4.531-.469 6.284a12 12 0 0 1-.506.503c-1.091.908-2.418 1.425-3.65 1.425-.98 0-1.866-.308-2.632-.922-.444-.352-.858-.68-1.258-.99-.375.69-.783 1.472-1.249 2.377-1.133 2.209-2.796 3.513-4.684 3.678l-.427.008-.247-.005zm-4.226-7.312c.395.731.839 1.59 1.388 2.679.764 1.513 1.833 2.435 2.938 2.523h.43300000000000005c1.08-.102 2.154-1.026 2.923-2.526.553-1.07 1.025-1.964 1.444-2.726-1.852-1.38-3.193-2.176-4.484-2.176s-2.657.781-4.639 2.228m11.896-.608c.475.372.98.768 1.527 1.203a2.07 2.07 0 0 0 1.308.462c1.099 0 2.104-.804 2.215-.897.086-.08.217-.212.344-.341.167-.207 1.68-2.13.472-3.433-.51-.553-.969-1.057-1.402-1.533-2.015 1.197-3.101 2.3-4.467 4.54m-19.167-4.457c-.424.462-.888.946-1.41 1.477-1.083 1.095-.139 2.737.516 3.455l.217.21c.516.467 1.399.973 2.299.973.497 0 .949-.16 1.349-.465l.797-.61c.25-.193.488-.377.727-.553-1.299-2.157-2.354-3.208-4.497-4.484m1.391-1.64c2.184 1.345 3.45 2.619 4.825 4.85 2.121-1.516 3.914-2.514 5.705-2.514s3.509.979 5.547 2.465c1.424-2.278 2.709-3.596 4.755-4.867-3.381-4.08-3.323-6.156.278-11.16-2.424-1.464-3.795-2.831-5.258-5.233-2.577 1.744-3.979 2.567-5.431 2.567s-2.851-.825-5.427-2.583c-1.419 2.302-2.882 3.788-5.103 5.185 3.115 4.358 3.143 7.365.103 11.29m-1.949-10.222c-.788.418-1.707.872-2.871 1.414-1.551.72-2.476 1.777-2.543 2.896v.218c.034 1.152.978 2.288 2.58 3.116l.191.097c1.055.544 1.941.998 2.726 1.422 2.657-3.318 2.638-5.428-.083-9.16m24.931.038c-3.285 4.473-3.318 5.494-.259 9.053.736-.388 1.627-.83 2.924-1.463 1.571-.773 2.504-1.868 2.557-2.999v-.14c-.025-1.158-.961-2.286-2.568-3.095-.886-.446-1.816-.916-2.654-1.356m-5.367-7.477c1.338 2.23 2.499 3.383 4.77 4.723.377-.498.771-1.018 1.207-1.582 1.058-1.372.117-2.984-.53-3.647l-.08-.077c-.103-.094-1.061-.963-2.266-.963-.513 0-1.01.16-1.477.465-.583.388-1.124.745-1.624 1.08m-17.437-1.535c-.747 0-1.544.305-2.185.842l-.35.355c-.608.729-1.399 2.286-.394 3.416.513.583.963 1.111 1.355 1.598 2.057-1.268 3.345-2.572 4.636-4.695-.489-.33-1.016-.688-1.588-1.065a2.64 2.64 0 0 0-1.474-.451m5.877.872c2.279 1.56 3.437 2.31 4.375 2.31s2.094-.748 4.384-2.302a102 102 0 0 1-1.249-2.478c-.753-1.53-1.835-2.46-2.982-2.548h-.081c-.138 0-.252 0-.363.006-1.064.093-2.138 1.042-2.846 2.53a72 72 0 0 1-1.233 2.482M78.778 5.992l3.401.035v26.93h-6.255v-1.742s2.89-.284 2.89-1.838l-.033-23.385zM109.164 32.956l-3.398-.036V5.992h6.252v1.74s-2.89.284-2.89 1.838l.033 23.386z"/><path fill="#1E1E1C" d="M107.129 17.41H81.296v3.172h25.833zM132.709 29.95l1.608 3.067h-22.299l14.345-25.375s.791-1.595 1.993-1.595 1.974 1.389 1.974 1.389l14.228 25.583h-3.717l-12.418-22.472-10.877 19.405h15.161zM143.156 7.799V6.027h6.186v15.518s-.747 8.8 12.712 8.8c0 0 12.338 1.027 12.338-8.8V6.058h3.331v15.36s.852 12.066-15.636 12.066-16.007-11.878-16.007-11.878V9.978s.305-1.711-2.924-2.18M211.098 9.26l2.28-3.172h-20.836s-9.178-.407-9.178 7.62 9.275 7.243 9.275 7.243h11.086s6.08-.498 6.08 4.385-6.08 4.509-6.08 4.509h-17.743s-2.143.247-2.143-3.045h-1.902v6.123h21.921s9.278.688 9.278-7.648-9.517-7.182-9.517-7.182h-11.352s-5.644.374-5.644-4.448c0-4.823 5.406-4.385 5.406-4.385h19.069M316.245 6.743c-.747.244-4.997.979-4.997 4.45 0 1.046 1.102.892 1.102.892h3.143s1.46.135 1.46-1.47V7.057s-.058-.523-.708-.31m.664 7.696h-4.334c-1.416 0-1.324 1.335-1.324 1.335v16.956h4.422c1.372 0 1.239-1.38 1.239-1.38V14.44zm3.539-6.054c0 4.228 5.217 3.782 5.217 3.782h3.584v19.138c0 1.645 1.324 1.555 1.324 1.555h4.423V14.176c0-2.182 1.86-2.003 1.86-2.003h7.56V6.682H320.44l.006 1.708zm-31.207 2.283-.464-.066c.233-4.44-4.117-3.94-4.117-3.94h-3.781c-11.741 0-11.347 11.953-11.347 11.953v9.28c0 2.535-2.354 1.936-2.354 1.936v2.87h3.884c4.345 0 4.212-5.373 4.212-5.373v-8.146c0-7.576 7.962-6.974 7.962-6.974h1.86c.93 0 .794.936.794.936v19.595c5.908 0 5.705-5.508 5.705-5.508v-8.478c0-6.94 6.705-6.542 6.705-6.542h2.487c.897 0 .73 1.002.73 1.002v14.786c0 4.808 3.948 4.74 3.948 4.74h1.791V6.662h-11.813c-5.339 0-6.202 4.006-6.202 4.006m108.975 6.776h-9.156c-3.448 0-4.478 3.537-4.675 4.107-.203.567.23.635.23.635h13.701c1.327 0 1.227-.935 1.227-.935v-2.87c0-1.047-1.327-.937-1.327-.937m-24.381-2.201c0-8.635-8.8-8.635-8.8-8.635h-17.119l.014 26.081h1.955c4.267 0 3.959-5.43 3.959-5.43V11.994h10.88c2.901 0 3.828 2.426 3.828 3.538s-.597 3.535-3.695 4.715c-3.096 1.18-4.597-.267-6.172-1.09-1.568-.822-3.048.028-3.492.355-.419.311.155.757.155.757l11.899 11.837c.75.713 1.416.627 1.416.627h6.591l-8.315-8.412s6.899-1.202 6.899-9.078m25.608 12.217h-12.343c-3.515 0-3.118-2.84-3.118-2.84V13.74c0-2.035 1.66-1.834 1.66-1.834h13.965c6.235 0 6.368-5.274 6.368-5.274H376.42v.873c2.226 1.933 1.927 4.77 1.927 4.77v15.487c0 5.172 5.572 4.974 5.572 4.974h22.029c0-5.31-6.502-5.273-6.502-5.273"/><path fill="#020203" d="M75.427 132.408h9.47c4.711 0 6.93 1.408 6.93 4.52 0 1.749-.922 3.034-2.818 3.678v.198c2.293.542 3.467 1.95 3.467 4.123 0 3.26-2.171 4.768-6.904 4.768H75.427zm2.046 1.703v5.878h7.377c3.44 0 4.91-.888 4.91-2.916s-1.47-2.962-4.91-2.962zm0 7.457v6.421h8.049c3.414 0 4.91-.988 4.91-3.21s-1.496-3.211-4.91-3.211z"/><path stroke="#020203" stroke-miterlimit="10" stroke-width=".43" d="M75.427 132.408h9.47c4.711 0 6.93 1.408 6.93 4.52 0 1.749-.922 3.034-2.818 3.678v.198c2.293.542 3.467 1.95 3.467 4.123 0 3.26-2.171 4.768-6.904 4.768H75.427zm2.046 1.703v5.878h7.377c3.44 0 4.91-.888 4.91-2.916s-1.47-2.962-4.91-2.962zm0 7.457v6.421h8.049c3.414 0 4.91-.988 4.91-3.21s-1.496-3.211-4.91-3.211z"/><path fill="#020203" d="M121.868 132.405h9.645c4.708 0 6.904 1.755 6.904 5.213 0 3.257-1.818 5.034-5.236 5.034h-.597c2.768 1.755 3.615 5.235 5.933 5.235h1.969v1.802h-2.419c-4.186 0-4.308-6.492-9.744-6.916h-4.412v6.916h-2.04v-17.287zm2.041 1.706v7.039h7.551c3.465 0 4.908-1.114 4.908-3.529s-1.443-3.508-4.908-3.508h-7.551z"/><path stroke="#020203" stroke-miterlimit="10" stroke-width=".43" d="M121.868 132.405h9.645c4.708 0 6.904 1.755 6.904 5.213 0 3.257-1.818 5.034-5.236 5.034h-.597c2.768 1.755 3.615 5.235 5.933 5.235h1.969v1.802h-2.419c-4.186 0-4.308-6.492-9.744-6.916h-4.412v6.916h-2.04v-17.287zm2.041 1.706v7.039h7.551c3.465 0 4.908-1.114 4.908-3.529s-1.443-3.508-4.908-3.508h-7.551z"/><path fill="#020203" d="M178.048 132.16c6.155 0 10.066 3.554 10.066 8.888 0 5.335-3.914 8.891-10.066 8.891s-10.072-3.554-10.072-8.891 3.914-8.888 10.072-8.888m0 16.077c4.886 0 7.998-2.839 7.998-7.186s-3.115-7.185-7.998-7.185c-4.884 0-8.024 2.839-8.024 7.185 0 4.347 3.165 7.186 8.024 7.186"/><path stroke="#020203" stroke-miterlimit="10" stroke-width=".43" d="M178.048 132.16c6.155 0 10.066 3.554 10.066 8.888 0 5.335-3.914 8.891-10.066 8.891s-10.072-3.554-10.072-8.891 3.914-8.888 10.072-8.888Zm0 16.077c4.886 0 7.998-2.839 7.998-7.186s-3.115-7.185-7.998-7.185c-4.884 0-8.024 2.839-8.024 7.185 0 4.347 3.165 7.186 8.024 7.186Z"/><path fill="#020203" d="M226.43 132.16c6.154 0 10.066 3.554 10.066 8.888 0 5.335-3.914 8.891-10.066 8.891s-10.073-3.554-10.073-8.891 3.918-8.888 10.073-8.888m0 16.077c4.886 0 7.998-2.839 7.998-7.186s-3.115-7.185-7.998-7.185c-4.884 0-8.027 2.839-8.027 7.185 0 4.347 3.168 7.186 8.027 7.186"/><path stroke="#020203" stroke-miterlimit="10" stroke-width=".43" d="M226.43 132.16c6.154 0 10.066 3.554 10.066 8.888 0 5.335-3.914 8.891-10.066 8.891s-10.073-3.554-10.073-8.891 3.918-8.888 10.073-8.888Zm0 16.077c4.886 0 7.998-2.839 7.998-7.186s-3.115-7.185-7.998-7.185c-4.884 0-8.027 2.839-8.027 7.185 0 4.347 3.168 7.186 8.027 7.186Z"/><path fill="#020203" d="M265.888 132.405h2.043v10.002h.225l12.012-10.002h2.813l-9.595 7.925c4.437 1.013 6.505 7.483 9.47 7.483h2.018v1.879h-2.44c-4.264 0-5.758-7.458-10.744-7.953l-3.762 3.114v4.842h-2.043v-17.287z"/><path stroke="#020203" stroke-miterlimit="10" stroke-width=".43" d="M265.888 132.405h2.043v10.002h.225l12.012-10.002h2.813l-9.595 7.925c4.437 1.013 6.505 7.483 9.47 7.483h2.018v1.879h-2.44c-4.264 0-5.758-7.458-10.744-7.953l-3.762 3.114v4.842h-2.043v-17.287z"/><path fill="#020203" d="M313.422 132.405h2.043v15.51h12.46v1.78h-14.503z"/><path stroke="#020203" stroke-miterlimit="10" stroke-width=".43" d="M313.422 132.405h2.043v15.51h12.46v1.78h-14.503z"/><path fill="#020203" d="M359.357 132.408h-2.043v17.287h2.043z"/><path stroke="#020203" stroke-miterlimit="10" stroke-width=".43" d="M359.357 132.408h-2.043v17.287h2.043z"/><path fill="#020203" d="M389.901 132.405h2.046l12.188 13.931h.322v-13.931h2.018v17.29h-2.043l-12.16-13.906h-.325v13.906h-2.046z"/><path stroke="#020203" stroke-miterlimit="10" stroke-width=".43" d="M389.901 132.405h2.046l12.188 13.931h.322v-13.931h2.018v17.29h-2.043l-12.16-13.906h-.325v13.906h-2.046z"/><path fill="#000" d="M22.251 94.247C12.313 94.173 0 93.878 0 79.326c0-12.129 10.83-15.361 25.886-15.507 7.862-.074 15.427.734 21.807 2.058v8.525c-7.046-1.544-16.244-2.572-23.068-2.498-8.01.22-14.464 2.058-14.464 7.79 0 6.394 7.64 6.468 13.35 6.394 15.06 0 26.778.588 26.778 14.772 0 10.732-8.976 16.022-27.296 15.801-8.529-.074-17.58-1.248-22.77-2.277v-8.6c4.374.809 13.944 2.647 23.142 2.647 11.052.074 16.838-2.427 16.838-7.865 0-5.879-6.677-6.248-17.952-6.322zM96.726 72.93h-24.7v-8.38h59.562v8.38h-24.776v43.069H96.724v-43.07zM165.86 64.553h18.617l22.327 51.448h-10.756l-4.894-11.466h-31.968l-4.895 11.466h-10.755l22.327-51.448zm22.101 32.192-10.014-23.592h-5.638l-9.939 23.592zM243.447 72.93h-24.7v-8.38h59.561v8.38h-24.775v43.069h-10.089v-43.07zM303.011 64.553H313.1v51.448h-10.089zM371.698 63.816c19.061 0 31.005 10.583 31.005 26.459s-11.944 26.458-31.005 26.458c-19.062 0-31.005-10.583-31.005-26.458 0-15.876 12.015-26.459 31.005-26.459m0 44.76c12.459 0 20.769-7.13 20.769-18.301 0-11.172-8.307-18.228-20.769-18.228-12.463 0-20.769 7.056-20.769 18.228 0 11.171 8.381 18.301 20.769 18.301M430.226 64.553h10.533l30.042 35.427h1.113V64.553h10.089v51.448H471.62l-30.114-35.572h-1.188v35.572h-10.089V64.553z"/></g><defs><clipPath id="a"><path fill="#fff" d="M0 0h482v150H0z"/></clipPath></defs></svg>