<svg xmlns="http://www.w3.org/2000/svg" width="167" height="40" fill="none"><path fill="#fff" d="M50.571 7.253H73.25v4.456a1.16 1.16 0 0 1-1.163 1.157h-6.579a1.16 1.16 0 0 0-1.163 1.157V30.59l.013 1.433h-3.59a2.33 2.33 0 0 1-2.337-2.324V14.023c0-.638-.517-1.157-1.158-1.157h-2.297c-.64 0-4.404-.083-4.404-3.682M39.533 32.023l-.032-17.635.013-7.133H27.137c-4.748 0-5.417 3.92-5.417 3.92s-.248-3.93-4.17-3.93h-4.032c-9.56 0-10.63 8.083-10.63 12.395v7.61s.204 1.673-1.25 1.673H0v3.1h4.866c4.415-.12 3.938-5.639 3.938-5.639v-6.055c0-6.432 3.329-7.461 7.943-7.461h1.026c.622 0 .607 0 .607.816v17.522c0 1.004-.079.812.928.819h.113c5.157 0 4.832-5.639 4.832-5.639v-6.744c0-6.113 3.053-6.772 7.67-6.772h1.025c.623 0 .608 0 .608.817v13.469c0 3.846 2.924 4.87 4.135 4.87h1.842zM128.607 7.857c0-.555.104-.615-.454-.615h-25.611c-.464 0-.474.126-.459.568.002.09.006.417.006.51 0 0 1.781 1.648 1.781 4.18v11.36q0 3.762 2.104 5.928c1.255 1.289 3.619 1.999 5.824 2.137q.007.002.013.004h.158c.209.01.417.024.635.024l-.011-.017 15.755.089v-.889c0-2.487-2.029-4.505-4.531-4.505h-10.946c-1.961 0-3.194-.2-3.194-2.475V12.64h12.738c5.807 0 6.189-4.78 6.189-4.78z"/><path fill="#fff" d="M110.693 22.16c-.379 0-.449-.122-.541-.305-.09-.185 1.064-5.088 5.819-5.088h7.064c.323 0 1.011.238 1.093.936v3.53c-.082.607-.61.88-1.099.924h-12.336zM48.06 7.703c0-.319-.133-.378-.334-.457-.198-.074-5.315.849-5.571 4.603-.007.096.002.49.028.566.096.287.387.66.99.712h3.871c.665-.068.967-.512 1.016-.925v-4.5zM48.06 30.794c0 .678-.554 1.228-1.236 1.228h-4.68V16.59c0-.679.554-1.232 1.238-1.232h4.678M101.48 30.909l-7.051-6.855c1.742-.315 2.927-1.055 4.197-2.313a8.37 8.37 0 0 0 2.505-5.98c0-4.698-3.912-8.519-8.088-8.519H75.76v24.779h2.332c2.004 0 3.629-1.616 3.629-3.608V12.449h10.73c1.852.02 3.352 1.5 3.352 3.315 0 .3-.053.585-.13.863-.007.049-.013.098-.028.143-.964 3.117-4.312 3.657-5.323 3.659-1.294.004-1.74-.19-3.009-.795-.312-.15-.79-.492-1.265-.696-1.565-.674-3.34.451-3.442.696s.115.37.305.557l12.1 11.643a.67.67 0 0 0 .47.19h7.162l-1.163-1.113zM143.033 7.682c.664.459 1.231.848 1.718 1.16.695.445 1.236.73 1.666.877.289.095.522.136.753.136s.463-.04.754-.136c.287-.1.625-.258 1.024-.487.8-.455 1.044-.634 2.465-1.614l-.263-.655-.141.02c-1.19.824-1.738 1.2-2.435 1.598q-.526.297-.9.43a1.6 1.6 0 0 1-.507.095c-.151 0-.31-.03-.513-.098-.361-.12-.853-.382-1.501-.795-.506-.323-1.094-.73-1.813-1.225l-.314.698zm13.943-2.947c.71 0 1.373.172 1.957.433.579.26 1.082.61 1.488.993l.008.009.009.006.117.121.007.005c.387.402.752.908 1.03 1.5.274.594.466 1.274.466 2.008a4 4 0 0 1-.844 2.462c-.612.806-1.163 1.535-1.657 2.205-1.035 1.393-1.796 2.502-2.279 3.412-.488.917-.684 1.608-.684 2.218.002.589.175 1.174.607 1.922.432.746 1.122 1.633 2.078 2.722.545.625 1.172 1.316 1.886 2.096.665.719.943 1.603.938 2.411 0 .715-.192 1.378-.451 1.958a6.5 6.5 0 0 1-.932 1.48l-.021.026-.024.023q-.202.207-.43.427l-.017.017-.021.017a5.8 5.8 0 0 1-1.441.89 4.7 4.7 0 0 1-1.879.414h-.024a3.8 3.8 0 0 1-2.394-.86q-.526-.422-1.003-.803l-.368.668q.272.216.567.453l.301.242.024.02a4.56 4.56 0 0 0 2.871 1.03q1.112-.001 2.202-.476a6.5 6.5 0 0 0 1.616-.997c.026-.021.06-.05.077-.068.167-.16.315-.309.456-.45l.006-.007a1 1 0 0 0 .056-.06l.023-.025a7.3 7.3 0 0 0 1.039-1.654c.345-.764.518-1.525.52-2.263a4.23 4.23 0 0 0-1.11-2.887q-.013-.013-.023-.028a121 121 0 0 1-1.875-2.086c-.982-1.12-1.614-1.945-1.993-2.602-.353-.614-.507-1.08-.509-1.554 0-.506.191-1.102.599-1.865.423-.8 1.107-1.822 2.219-3.317.494-.67 1.044-1.397 1.653-2.196a4.7 4.7 0 0 0 .996-2.92c0-.771-.182-1.551-.536-2.317a6.4 6.4 0 0 0-1.17-1.705.4.4 0 0 0-.045-.043l-.088-.089-.044-.042a6.1 6.1 0 0 0-1.687-1.123 5.5 5.5 0 0 0-2.267-.5h-.012a5.14 5.14 0 0 0-2.855.885c-.94.625-.124.07-1.299.874l.162.771v.015c.684-.47.686-.457 1.559-1.037a4.37 4.37 0 0 1 2.433-.757M151.51 31.33c-.849-.631-1.57-1.114-2.196-1.446-.819-.436-1.454-.61-2.061-.61s-1.261.18-2.1.623c-.836.438-1.843 1.138-3.093 2.086-.65.491-1.366 1.05-2.172 1.677a3.9 3.9 0 0 1-2.414.847h-.017a4.7 4.7 0 0 1-1.976-.455 5.9 5.9 0 0 1-1.507-.995h.004c-.094-.083-.162-.158-.214-.21l-.006-.007-.009-.007-.074-.078-.011-.013a6 6 0 0 1-.979-1.486c-.274-.585-.468-1.25-.473-1.973a3.44 3.44 0 0 1 1.011-2.456 39 39 0 0 0 1.848-2v.003c.836-.984 1.447-1.86 1.841-2.662.395-.803.572-1.522.575-2.262 0-.733-.18-1.505-.593-2.402-.288-.632-.697-1.32-1.225-2.078l-.63.41c.513.732.898 1.387 1.169 1.982.357.778.524 1.442.524 2.09 0 .625-.16 1.24-.498 1.933-.349.714-.911 1.527-1.715 2.477q-.01.01-.021.026a40 40 0 0 1-1.815 1.962 4.15 4.15 0 0 0-1.223 2.987c0 .747.184 1.516.543 2.282a6.9 6.9 0 0 0 1.133 1.707l.075.076s.017.02.03.028l.036.036q.07.074.171.168.012.011.023.02a6.8 6.8 0 0 0 1.702 1.126 5.5 5.5 0 0 0 2.292.523 4.63 4.63 0 0 0 2.882-.997l.013-.008.426-.332c.63-.491 1.205-.938 1.736-1.335q.012-.01.023-.017c1.33-1.006 2.245-1.625 2.968-2.005.705-.372 1.244-.538 1.748-.538.505 0 1.025.161 1.707.523.588.31 1.287.774 2.215 1.471l.335-.687zm-17.35-17.866a49 49 0 0 0-.977-1.144 3.68 3.68 0 0 1-.924-2.447c0-.69.176-1.331.424-1.897a6 6 0 0 1 .889-1.456l.024-.026.023-.023c.141-.147.287-.291.421-.43l.028-.027.028-.022c.802-.667 1.954-1.25 3.301-1.256h.006c.796 0 1.649.225 2.435.755.437.29.845.57 1.228.831l.361-.663q-.552-.377-1.167-.791a5.13 5.13 0 0 0-2.859-.883c-1.817.011-3.153.902-3.791 1.433l-.017.011a1 1 0 0 0-.07.064l-.026.027-.077.075q-.171.172-.346.355l-.054.055c-.002.004-.03.032-.032.036a6.9 6.9 0 0 0-1 1.635 5.5 5.5 0 0 0-.483 2.192 4.42 4.42 0 0 0 1.109 2.943q.477.545.883 1.036m18.658-3.76.12-.19-.336-.58-1.424.975c-.748.476-1.387.83-2.035 1.052-.432.147-.868.23-1.308.23s-.877-.083-1.307-.23a7.6 7.6 0 0 1-1.317-.617c-.654-.376-1.376-.86-2.251-1.462-.006-.005-.011-.015-.017-.013-.053.028-.355.667-.355.667.86.594 1.584 1.079 2.247 1.46.543.31 1.003.524 1.448.675.525.18 1.047.27 1.552.27.504 0 1.028-.09 1.552-.27.791-.27 1.524-.704 2.2-1.129m-13.762 3.644c.53.772.96 1.504 1.289 2.216.487 1.06.748 2.094.748 3.121s-.265 2.035-.75 3.021c-.488.987-1.185 1.97-2.078 3.017h-.003a40 40 0 0 1-1.928 2.088c-.389.409-.509.793-.515 1.249 0 .393.115.83.31 1.243.19.409.453.787.695 1.053l.053.057-.013-.015c.073.073.124.126.163.158.276.259.652.518 1.058.703.408.188.847.302 1.264.302.47-.006.915-.127 1.379-.485.801-.622 1.518-1.188 2.191-1.69 1.281-.967 2.337-1.711 3.327-2.236.987-.52 1.93-.823 2.901-.823s1.896.295 2.865.812c.705.374 1.441.863 2.266 1.473l.4-.64c-.922-.678-1.634-1.135-2.311-1.496-1.133-.607-2.185-.9-3.218-.9s-2.076.29-3.254.908c-1.127.6-2.307 1.454-3.412 2.292a.02.02 0 0 0-.013.008c-.509.381-1.041.796-1.616 1.242l-.586.457-.011.009a1.42 1.42 0 0 1-.913.319c-.282 0-.609-.081-.938-.232a3.3 3.3 0 0 1-.86-.568l-.034-.03-.105-.106-.019-.019-.013-.015a3.6 3.6 0 0 1-.56-.857c-.156-.331-.239-.657-.239-.922.006-.268.055-.47.31-.736a42 42 0 0 0 1.93-2.086q.015-.015.03-.032c.996-1.17 1.689-2.177 2.179-3.172.549-1.118.829-2.245.829-3.35 0-1.107-.267-2.236-.816-3.433-.345-.746-.791-1.513-1.371-2.355m16.493 17.162q.605.483 1.278 1.025c.451.36.877.478 1.343.483.391 0 .808-.105 1.197-.273.378-.163.729-.39.994-.612q.168-.16.344-.34c.229-.276.481-.65.661-1.057.188-.412.304-.854.304-1.25a1.77 1.77 0 0 0-.49-1.248l-.021-.026.021.024a141 141 0 0 1-1.909-2.122c-.982-1.127-1.738-2.075-2.273-2.992-.53-.914-.84-1.83-.836-2.79 0-.998.323-1.976.881-3.027.564-1.054 1.368-2.213 2.416-3.631.502-.679 1.058-1.412 1.672-2.22.365-.485.492-.942.494-1.418 0-.428-.116-.87-.306-1.274a3.8 3.8 0 0 0-.706-1.031l.009.009-.103-.103a3.7 3.7 0 0 0-1.011-.67 3.1 3.1 0 0 0-1.251-.284 2.67 2.67 0 0 0-1.496.47l-1.183.884.195.264.094.363 1.315-.886c.353-.232.688-.34 1.082-.343.293 0 .62.077.936.217.289.132.573.32.802.534l.068.066q-.001 0 .005.004c.218.223.421.523.56.823.158.332.239.661.237.957-.002.363-.105.655-.344.972l-.03.038a293 293 0 0 0-1.646 2.188c-.909 1.23-1.839 2.532-2.474 3.723-.663 1.245-.973 2.32-.973 3.38-.002 1.038.304 2.073.941 3.166.505.867 1.187 1.767 2.354 3.106.532.608 1.137 1.278 1.896 2.107q.011.015.022.026c.211.238.29.436.297.763 0 .255-.084.59-.235.927a4 4 0 0 1-.535.863q-.147.149-.284.281c-.24.196-.522.366-.796.485-.318.138-.628.21-.897.21-.332-.004-.584-.095-.864-.312l-.007-.004c-.464-.375-.885-.713-1.278-1.025l-.475.582zM139.732 8.407l.536-.545q-.645-.442-1.383-.94a2.64 2.64 0 0 0-1.49-.465h-.013c-.81 0-1.634.393-2.168.846l-.331.332a4.4 4.4 0 0 0-.629 1.027c-.173.397-.28.818-.276 1.21.007.465.126.88.494 1.31q.627.716 1.167 1.375l.625-.427a46 46 0 0 0-1.221-1.442 1.18 1.18 0 0 1-.31-.827c0-.255.077-.58.216-.902.124-.284.303-.582.498-.822l.242-.245.038-.038c.37-.302 1.013-.647 1.653-.647.4 0 .742.109 1.09.339q.76.514 1.424.967"/><path fill="#fff" d="M140.827 33.455c.278.536.596 1.163.979 1.927.56 1.122 1.262 2.032 2.091 2.698.853.69 1.839 1.103 2.848 1.184h.019q.038.008.077.006h.071l.145.005h.165c.066 0 .134-.005.198-.005h.037q.035.001.07-.004h.039c1.003-.089 1.986-.5 2.841-1.188.83-.67 1.535-1.574 2.102-2.688a85 85 0 0 1 1.734-3.272c.863-1.524 1.55-2.5 2.296-3.257.575-.59 1.219-1.091 2.125-1.644l-.331-.678c-.956.578-1.679 1.127-2.335 1.799-.81.825-1.533 1.862-2.412 3.414a85 85 0 0 0-1.748 3.3c-.524 1.031-1.168 1.852-1.903 2.443s-1.574.946-2.438 1.02l-.038.005h-.036c-.097 0-.195.004-.295.004h-.048l-.166-.004h-.071l-.034-.004c-.866-.07-1.704-.425-2.437-1.019-.736-.59-1.373-1.416-1.888-2.45-.387-.773-.74-1.464-1.065-2.085l-.59.495zm-5.02-6.08c.911.563 1.55 1.054 2.097 1.603.597.601 1.148 1.34 1.777 2.392l.596-.468c-.63-1.048-1.199-1.81-1.836-2.452-.609-.61-1.302-1.135-2.213-1.698l-.419.625zm24.548-13.527c.646.34 1.364.708 2.164 1.114 1.08.55 1.933 1.235 2.529 2.024.588.774.922 1.66.947 2.56l-.008-.049.01.091v-.042l.005.032-.005.255v.015c-.04.895-.384 1.771-.981 2.536-.596.766-1.439 1.43-2.506 1.959h-.002c-.812.401-1.531.759-2.174 1.09l.586.545c.564-.29 1.197-.604 1.922-.961 1.167-.58 2.097-1.312 2.768-2.171.697-.895 1.091-1.922 1.138-2.962v-.034l.004-.257q.001-.059-.006-.11c-.041-1.034-.419-2.05-1.097-2.946-.667-.882-1.606-1.637-2.788-2.238-.748-.381-1.42-.723-2.025-1.042l-.481.595zM147.211.748h.105l.124.005h.017c.878.07 1.736.427 2.482 1.027.75.6 1.396 1.437 1.903 2.487.601 1.24 1.116 2.271 1.595 3.14.857 1.553 1.588 2.595 2.45 3.454.682.678 1.469 1.262 2.506 1.89l.461-.598c-1.064-.64-1.8-1.195-2.435-1.824-.793-.791-1.488-1.773-2.324-3.283-.417-.757-.874-1.656-1.575-3.106-.556-1.148-1.268-2.071-2.111-2.745-.868-.695-1.868-1.108-2.895-1.186-.012 0-.04-.005-.051-.005L147.339 0h-.137l-.248.004-.134.005h-.043c-.024 0-.039 0-.054.002-1.032.091-2.02.508-2.875 1.207-.825.679-1.518 1.6-2.057 2.74a56 56 0 0 1-1.556 3.092c-.783 1.416-1.488 2.411-2.292 3.23-.798.814-1.756 1.522-3.102 2.288q-.014.008-.03.017c-.843.482-1.895 1.018-3.312 1.69-1.167.549-2.097 1.255-2.773 2.1-.691.862-1.09 1.863-1.157 2.895a1 1 0 0 0-.008.095v.245l-.002.049c.023 1.071.404 2.13 1.101 3.061.669.896 1.605 1.663 2.781 2.278l.126.067c.691.36 1.309.68 1.865.976l.617-.523c-.664-.355-1.413-.744-2.259-1.184-1.08-.563-1.933-1.26-2.53-2.06-.594-.795-.932-1.705-.951-2.63v-.034q.002-.151.004-.22v-.025l.005-.023c.051-.889.395-1.754.996-2.5.596-.751 1.441-1.389 2.506-1.89 1.325-.628 2.428-1.18 3.363-1.714h.004c1.402-.802 2.418-1.542 3.29-2.433.873-.889 1.61-1.941 2.412-3.391a55 55 0 0 0 1.578-3.136c.494-1.046 1.122-1.88 1.853-2.48.734-.601 1.578-.96 2.444-1.037l.03-.004h.03l.357-.009h.024M142.8 31.895c.372.706.772 1.492 1.215 2.381.427.853.925 1.471 1.428 1.877.502.402 1.003.6 1.488.645h.017l.16.004q.117 0 .246-.004c.492-.047.996-.245 1.503-.653.511-.406 1.016-1.023 1.445-1.875a88 88 0 0 1 1.786-3.372c.917-1.614 1.723-2.794 2.679-3.77.662-.68 1.389-1.25 2.238-1.797l-.359-.661c-.975.62-1.734 1.231-2.42 1.935-.945.963-1.781 2.137-2.793 3.923-.5.882-1.073 1.964-1.802 3.402-.353.697-.782 1.26-1.244 1.628-.357.285-.708.445-1.071.487l-.203.002h-.139c-.357-.04-.704-.2-1.057-.482-.451-.364-.876-.925-1.227-1.627a123 123 0 0 0-1.263-2.473l-.627.426zm-5.484-6.49c.905.573 1.657 1.147 2.335 1.831.706.706 1.313 1.51 1.933 2.511l.611-.442c-.671-1.076-1.302-1.888-2.007-2.598-.665-.67-1.407-1.259-2.403-1.895zm21.793-9.418c.68.36 1.434.746 2.287 1.18.734.372 1.315.823 1.679 1.307.293.392.44.774.449 1.163v.096c-.022.387-.173.757-.464 1.133-.357.46-.917.891-1.623 1.248l-.023.011c-.997.491-1.831.908-2.564 1.293l.323.678c.757-.398 1.603-.819 2.574-1.297l-.006.004h.004c.879-.44 1.507-.952 1.913-1.477.404-.524.593-1.047.618-1.557v.026-.168c-.01-.523-.194-1.057-.6-1.601-.405-.536-1.046-1.072-1.938-1.527-.84-.427-1.597-.812-2.281-1.176l-.348.666zm-23.071-1.25.013-.011-.013.006c-.992.57-2.138 1.142-3.485 1.78-.872.41-1.492.901-1.896 1.407-.4.506-.591 1.017-.62 1.525 0 .072-.005.132-.005.168v.004c.011.527.197 1.076.607 1.629.413.553 1.054 1.099 1.944 1.565 1.005.52 1.877.973 2.649 1.39l.417-.63c-.774-.42-1.644-.873-2.673-1.405l-.043-.02c-.729-.384-1.314-.85-1.686-1.349-.293-.397-.449-.801-.458-1.197v-.042l.004-.098c.022-.349.171-.71.46-1.074.357-.449.921-.863 1.625-1.193 1.554-.738 2.606-1.273 3.515-1.79q.01-.006.021-.013c1.634-.929 2.818-1.807 3.836-2.85 1.011-1.032 1.877-2.242 2.809-3.924.475-.859.983-1.869 1.653-3.278.327-.696.735-1.255 1.184-1.62.342-.279.699-.443 1.063-.485h.085l.169-.007h.032l.06.005c.348.032.727.195 1.09.489.46.368.883.933 1.225 1.635.625 1.284 1.144 2.33 1.655 3.255.99 1.794 1.85 2.996 2.874 4.012.767.765 1.65 1.444 2.837 2.173l.325-.68c-1.027-.634-1.875-1.27-2.632-2.025-1.02-1.012-1.845-2.215-2.745-3.844-.507-.916-1.029-1.969-1.638-3.219-.417-.859-.917-1.484-1.43-1.892-.509-.408-1.024-.61-1.529-.653l-.081-.004h-.058c-.085 0-.186.004-.293.006-.492.051-.994.251-1.49.655-.502.406-.988 1.027-1.388 1.882a59 59 0 0 1-1.631 3.234c-.846 1.529-1.678 2.73-2.687 3.761-1.009 1.033-2.181 1.877-3.669 2.724"/></svg>