<svg xmlns="http://www.w3.org/2000/svg" width="169" height="68" fill="none"><path fill="#fff" d="M51.253 7.346h22.984v4.515c0 .646-.527 1.171-1.179 1.171h-6.667c-.65 0-1.179.524-1.179 1.172v16.782l.013 1.452h-3.638a2.36 2.36 0 0 1-2.368-2.354v-15.88c0-.646-.525-1.172-1.175-1.172h-2.327c-.65 0-4.464-.084-4.464-3.73M40.066 32.438l-.032-17.864.013-7.226H27.503c-4.812 0-5.49 3.972-5.49 3.972s-.252-3.983-4.226-3.983h-4.086c-9.69 0-10.774 8.19-10.774 12.557v7.709s.206 1.695-1.267 1.695H0v3.14h4.932c4.474-.12 3.99-5.712 3.99-5.712v-6.134c0-6.515 3.375-7.558 8.05-7.558h1.04c.631 0 .616 0 .616.827v17.75c0 1.016-.08.823.94.829h.115c5.227 0 4.897-5.712 4.897-5.712v-6.832c0-6.192 3.094-6.86 7.773-6.86h1.04c.63 0 .615 0 .615.827v13.645c0 3.896 2.964 4.934 4.19 4.934h1.8679999999999999zM130.34 7.958c0-.562.106-.623-.46-.623h-25.956c-.47 0-.481.128-.466.576.002.09.007.422.007.516 0 0 1.805 1.67 1.805 4.235V24.17q0 3.81 2.132 6.004c1.272 1.306 3.668 2.025 5.902 2.165.005 0 .011.004.013.004h.161c.212.011.422.024.643.024l-.011-.017 15.967.09v-.9c0-2.52-2.056-4.564-4.591-4.564h-11.094c-1.987 0-3.237-.202-3.237-2.507V12.804h12.91c5.885 0 6.272-4.842 6.272-4.842z"/><path fill="#fff" d="M112.184 22.446c-.384 0-.455-.122-.548-.308-.091-.187 1.079-5.154 5.898-5.154h7.159c.327 0 1.025.242 1.107.948v3.575c-.082.616-.617.892-1.114.937h-12.502zM48.708 7.803c0-.323-.134-.384-.338-.463-.202-.076-5.387.859-5.647 4.663-.006.097.002.495.028.572.098.291.393.668 1.004.722h3.924c.674-.069.98-.52 1.029-.937V7.8zM48.708 31.193a1.25 1.25 0 0 1-1.253 1.245h-4.743V16.803c0-.687.561-1.247 1.255-1.247h4.74M102.847 31.31l-7.146-6.944c1.766-.32 2.967-1.069 4.254-2.344a8.47 8.47 0 0 0 2.539-6.056c0-4.76-3.965-8.63-8.197-8.63H76.781v25.1h2.364c2.03 0 3.677-1.637 3.677-3.655V12.61h10.875c1.876.018 3.398 1.518 3.398 3.357 0 .304-.055.592-.133.874q-.007.076-.028.145c-.977 3.157-4.37 3.704-5.395 3.706-1.311.005-1.764-.191-3.049-.805-.316-.15-.801-.498-1.283-.705-1.586-.682-3.384.457-3.488.705s.117.375.31.564L96.29 32.246a.68.68 0 0 0 .476.194h7.259l-1.179-1.128zM144.962 7.782c.673.465 1.248.86 1.742 1.176.704.45 1.252.739 1.688.887.292.097.528.138.762.138s.471-.04.765-.138c.291-.101.633-.26 1.038-.493.81-.46 1.057-.642 2.498-1.635l-.266-.663-.143.02c-1.207.835-1.762 1.216-2.468 1.619q-.534.302-.912.435c-.198.067-.36.097-.514.097a1.6 1.6 0 0 1-.52-.1c-.366-.122-.864-.387-1.521-.805-.514-.327-1.109-.738-1.837-1.24l-.319.706zm14.131-2.985c.72 0 1.392.174 1.983.44a5.5 5.5 0 0 1 1.508 1.005l.009.009.008.006.12.123.006.004c.392.407.763.92 1.045 1.52.277.602.472 1.29.472 2.034a4.06 4.06 0 0 1-.856 2.494c-.62.816-1.179 1.555-1.679 2.233-1.049 1.411-1.82 2.536-2.31 3.457-.494.929-.693 1.629-.693 2.247.002.596.177 1.189.615 1.947.438.756 1.138 1.654 2.106 2.757.553.633 1.187 1.333 1.911 2.123.674.728.956 1.624.951 2.443 0 .723-.195 1.395-.457 1.983a6.6 6.6 0 0 1-.944 1.5l-.022.025-.024.024q-.204.21-.436.433l-.017.017-.022.017c-.398.336-.89.657-1.46.9a4.8 4.8 0 0 1-1.905.42h-.023c-.802 0-1.675-.26-2.427-.87l-1.016-.814-.373.677.574.458.306.246s.017.013.023.02a4.63 4.63 0 0 0 2.91 1.044 5.5 5.5 0 0 0 2.232-.483 6.6 6.6 0 0 0 1.638-1.01c.026-.021.061-.05.078-.069.169-.161.319-.312.462-.456l.006-.007a1 1 0 0 0 .057-.06l.024-.026c.418-.5.782-1.077 1.053-1.675.348-.774.524-1.545.526-2.292a4.28 4.28 0 0 0-1.124-2.925q-.014-.013-.024-.028a123 123 0 0 1-1.901-2.113c-.994-1.135-1.635-1.97-2.019-2.636-.358-.623-.514-1.094-.516-1.575 0-.512.193-1.115.607-1.889.429-.81 1.122-1.845 2.249-3.36a190 190 0 0 1 1.675-2.224 4.78 4.78 0 0 0 1.01-2.957c0-.782-.184-1.573-.544-2.348a6.5 6.5 0 0 0-1.185-1.727c-.013-.016-.031-.03-.046-.044l-.089-.09-.045-.043a6.2 6.2 0 0 0-1.71-1.137 5.6 5.6 0 0 0-2.297-.506h-.013c-1.014 0-2.015.31-2.892.896-.954.633-.126.07-1.318.885l.165.782v.015c.693-.476.696-.463 1.58-1.051a4.43 4.43 0 0 1 2.465-.767m-5.527 26.94c-.86-.64-1.591-1.129-2.225-1.465-.83-.441-1.474-.618-2.089-.618-.616 0-1.279.183-2.128.631-.847.444-1.868 1.152-3.135 2.113-.659.497-1.385 1.064-2.202 1.7a3.96 3.96 0 0 1-2.446.856h-.017a4.8 4.8 0 0 1-2.003-.46 6 6 0 0 1-1.527-1.008h.004c-.095-.084-.165-.16-.217-.214l-.006-.006-.009-.007-.076-.08-.01-.012a6.2 6.2 0 0 1-.993-1.506c-.277-.592-.474-1.266-.479-1.998a3.49 3.49 0 0 1 1.025-2.488 39 39 0 0 0 1.872-2.027v.005c.848-.998 1.467-1.885 1.866-2.697.401-.814.581-1.542.583-2.292 0-.743-.182-1.525-.6-2.433-.293-.64-.707-1.338-1.242-2.105l-.639.416c.52.74.91 1.404 1.185 2.007.362.789.531 1.46.531 2.117 0 .634-.163 1.256-.505 1.958-.353.724-.923 1.547-1.738 2.51q-.01.01-.021.025a40 40 0 0 1-1.84 1.988 4.2 4.2 0 0 0-1.239 3.026c0 .756.186 1.536.55 2.311.286.612.67 1.194 1.107 1.683q.024.026.041.047l.076.077s.018.02.031.028l.036.037q.07.075.174.17.011.011.024.02a6.8 6.8 0 0 0 1.724 1.141c.77.351 1.552.53 2.323.53a4.7 4.7 0 0 0 2.921-1.01l.013-.009.431-.336c.639-.497 1.222-.95 1.76-1.352l.023-.018c1.348-1.018 2.276-1.645 3.008-2.03.715-.378 1.261-.546 1.772-.546s1.038.164 1.73.53c.595.315 1.304.784 2.244 1.49l.341-.695zM135.969 13.64a46 46 0 0 0-.99-1.158 3.72 3.72 0 0 1-.936-2.48c0-.697.178-1.348.429-1.92.247-.576.57-1.073.901-1.476l.024-.026.024-.024c.143-.148.29-.295.427-.435l.028-.028.028-.021c.813-.677 1.981-1.267 3.346-1.273h.006a4.4 4.4 0 0 1 2.468.764q.662.445 1.244.843l.366-.672q-.559-.382-1.183-.802a5.2 5.2 0 0 0-2.897-.893c-1.842.01-3.196.913-3.842 1.451l-.017.011a1 1 0 0 0-.071.065l-.026.028-.078.075q-.174.173-.351.36l-.055.056c-.002.004-.03.032-.032.036a7 7 0 0 0-1.014 1.657c-.325.743-.49 1.49-.49 2.22a4.48 4.48 0 0 0 1.125 2.981q.483.552.895 1.049m18.909-3.808.122-.194-.341-.586-1.443.987c-.758.482-1.406.842-2.062 1.066-.438.149-.88.232-1.327.232s-.888-.083-1.323-.232a7.7 7.7 0 0 1-1.335-.625c-.663-.38-1.396-.872-2.282-1.482-.006-.004-.011-.015-.017-.012-.054.028-.36.676-.36.676.871.6 1.606 1.092 2.277 1.477a8.4 8.4 0 0 0 1.467.685 4.8 4.8 0 0 0 1.573.274c.512 0 1.043-.09 1.574-.274.801-.273 1.544-.713 2.229-1.143m-13.948 3.691c.538.782.973 1.523 1.307 2.245.494 1.074.758 2.121.758 3.161s-.268 2.061-.76 3.06c-.494 1-1.201 1.995-2.106 3.057h-.002a40 40 0 0 1-1.955 2.115c-.394.414-.516.803-.522 1.264 0 .399.117.843.314 1.26.193.414.459.797.704 1.066l.055.059-.013-.015q.108.11.164.159c.28.263.661.526 1.073.713.414.19.858.306 1.28.306.477-.007.928-.13 1.398-.491.812-.631 1.538-1.204 2.221-1.713 1.298-.98 2.368-1.733 3.371-2.265 1.002-.526 1.957-.834 2.941-.834s1.922.3 2.903.823c.715.379 1.461.874 2.297 1.492l.405-.648c-.934-.687-1.655-1.15-2.342-1.516-1.148-.614-2.214-.911-3.261-.911s-2.104.293-3.298.92c-1.142.607-2.338 1.473-3.458 2.321q-.009.003-.013.009c-.516.385-1.055.805-1.638 1.258l-.594.463s-.006.006-.011.008c-.292.224-.57.32-.925.323-.286 0-.618-.081-.951-.234a3.3 3.3 0 0 1-.871-.575q-.016-.016-.035-.03l-.106-.108-.02-.02-.013-.015a3.7 3.7 0 0 1-.567-.868c-.159-.336-.243-.665-.243-.934.006-.272.056-.476.314-.746a43 43 0 0 0 1.957-2.113q.015-.015.03-.032c1.01-1.184 1.712-2.205 2.208-3.213.557-1.133.841-2.275.841-3.395s-.271-2.263-.828-3.476c-.349-.756-.802-1.534-1.389-2.386m16.715 17.385q.613.488 1.296 1.038c.457.364.888.485 1.36.49.397 0 .819-.106 1.214-.276a4.3 4.3 0 0 0 1.007-.62q.17-.163.349-.345c.232-.28.488-.66.67-1.07.19-.419.307-.867.307-1.267a1.8 1.8 0 0 0-.496-1.265l-.021-.025.021.023a143 143 0 0 1-1.935-2.15c-.994-1.14-1.761-2.101-2.303-3.03-.537-.926-.852-1.854-.847-2.825 0-1.013.327-2.004.893-3.067.572-1.069 1.386-2.243 2.448-3.68.509-.686 1.073-1.43 1.694-2.248.371-.49.499-.954.501-1.436 0-.433-.117-.881-.31-1.29a3.9 3.9 0 0 0-.715-1.045l.009.009-.104-.104a3.8 3.8 0 0 0-1.025-.678 3.1 3.1 0 0 0-1.268-.289c-.494.004-.988.13-1.516.476l-1.199.896.197.267.096.368 1.332-.898c.358-.234.698-.344 1.097-.346.297 0 .628.077.949.22.292.133.581.322.812.54l.07.067q-.001 0 .004.004c.221.226.427.53.568.833.16.336.242.67.24.97-.002.368-.106.663-.349.984l-.03.039c-.611.805-1.163 1.538-1.668 2.216-.921 1.247-1.864 2.565-2.507 3.771-.672 1.262-.986 2.35-.986 3.425-.002 1.051.307 2.1.953 3.207.512.879 1.203 1.79 2.386 3.147a130 130 0 0 0 1.922 2.134q.01.014.021.026c.215.241.295.441.302.773 0 .259-.085.597-.239.94-.13.294-.327.61-.541.874q-.149.15-.289.284a3.5 3.5 0 0 1-.806.491c-.323.14-.637.213-.91.213-.336-.004-.591-.097-.875-.316l-.007-.005c-.47-.379-.897-.721-1.295-1.038l-.481.59zm-14.73-23.173.544-.551q-.655-.449-1.402-.952a2.68 2.68 0 0 0-1.51-.472h-.013c-.822 0-1.656.399-2.197.858l-.336.336c-.23.275-.464.641-.637 1.04-.176.403-.284.829-.28 1.225.007.472.128.892.501 1.327q.635.726 1.183 1.394l.632-.433a45 45 0 0 0-1.237-1.46 1.2 1.2 0 0 1-.314-.838c0-.259.078-.588.219-.914.126-.288.308-.59.505-.833l.245-.248.039-.039c.374-.305 1.027-.654 1.675-.654.405 0 .751.11 1.105.342q.77.52 1.443.98"/><path fill="#fff" d="M142.726 33.89c.281.543.604 1.178.992 1.952.568 1.137 1.278 2.059 2.119 2.733.865.7 1.864 1.117 2.886 1.2h.02q.039.008.078.006h.071l.148.004h.166c.068 0 .137-.004.202-.004h.037q.036.001.071-.005h.039c1.017-.09 2.013-.506 2.88-1.204.841-.678 1.556-1.593 2.13-2.722a86 86 0 0 1 1.757-3.315c.876-1.544 1.571-2.532 2.327-3.3.583-.596 1.235-1.104 2.154-1.664l-.336-.687c-.968.586-1.701 1.141-2.366 1.822-.821.836-1.553 1.887-2.444 3.459a86 86 0 0 0-1.772 3.343c-.531 1.044-1.184 1.876-1.929 2.474-.745.6-1.595.959-2.47 1.034l-.039.005h-.037c-.097 0-.197.004-.299.004h-.048l-.169-.005h-.071l-.035-.004c-.877-.07-1.727-.43-2.47-1.032-.745-.598-1.391-1.434-1.913-2.48a130 130 0 0 0-1.079-2.113l-.598.501zm-5.088-6.16c.923.571 1.571 1.069 2.125 1.624.605.61 1.164 1.357 1.801 2.423l.605-.474c-.64-1.061-1.216-1.832-1.862-2.483-.617-.618-1.319-1.15-2.242-1.72l-.425.632zm24.879-13.702c.655.344 1.383.717 2.193 1.128 1.094.558 1.959 1.252 2.563 2.05.596.785.934 1.683.96 2.594l-.009-.05.011.093V19.8l.005.032-.005.259v.015c-.041.906-.39 1.794-.994 2.57-.605.775-1.459 1.447-2.54 1.983h-.002c-.823.407-1.551.769-2.204 1.105l.594.551a146 146 0 0 1 1.948-.973c1.183-.588 2.126-1.33 2.806-2.2.707-.906 1.105-1.946 1.153-3v-.034l.004-.26q.001-.06-.006-.113c-.041-1.046-.425-2.076-1.112-2.983-.676-.893-1.627-1.658-2.825-2.268-.759-.385-1.439-.732-2.052-1.055l-.488.603zM149.196.758h.106l.125.004h.018c.89.072 1.759.433 2.515 1.04.761.608 1.415 1.457 1.929 2.52.609 1.256 1.131 2.301 1.616 3.182.869 1.572 1.61 2.628 2.483 3.498.692.687 1.489 1.279 2.54 1.914l.468-.605c-1.079-.648-1.824-1.21-2.468-1.848-.804-.801-1.508-1.796-2.355-3.325-.423-.767-.887-1.678-1.597-3.147-.564-1.163-1.285-2.098-2.139-2.78-.88-.705-1.894-1.123-2.934-1.202-.013 0-.041-.005-.052-.005L149.326 0h-.139l-.251.004-.137.005h-.043c-.024 0-.039 0-.054.002-1.047.092-2.048.515-2.915 1.223-.836.687-1.538 1.62-2.084 2.776a55 55 0 0 1-1.578 3.132c-.793 1.434-1.508 2.442-2.323 3.272-.808.825-1.778 1.542-3.144 2.317q-.013.008-.03.017c-.854.49-1.92 1.032-3.356 1.713-1.183.555-2.126 1.27-2.811 2.128-.699.872-1.105 1.886-1.172 2.931-.004.034-.009.071-.009.097v.248l-.002.05c.024 1.085.41 2.157 1.116 3.1.678.907 1.627 1.685 2.819 2.307l.128.07c.7.363 1.326.689 1.89.988l.626-.53c-.674-.36-1.433-.754-2.291-1.2-1.094-.57-1.958-1.277-2.563-2.087-.602-.805-.945-1.727-.964-2.664v-.034q.002-.154.004-.222v-.026l.005-.024c.052-.9.4-1.777 1.009-2.533.605-.76 1.461-1.406 2.54-1.914 1.343-.636 2.461-1.196 3.408-1.736h.004c1.422-.812 2.451-1.562 3.335-2.464.884-.9 1.632-1.967 2.444-3.436.499-.9 1.019-1.945 1.599-3.177.501-1.06 1.138-1.904 1.879-2.51.743-.61 1.599-.974 2.477-1.052l.03-.004h.03c.113-.002.23-.007.362-.009h.024m-4.464 31.551c.377.715.783 1.512 1.231 2.413.434.863.938 1.49 1.448 1.901.509.407 1.016.608 1.508.653h.017l.163.004q.118 0 .249-.004c.498-.047 1.01-.248 1.523-.661.518-.412 1.029-1.036 1.465-1.9a88 88 0 0 1 1.809-3.416c.93-1.635 1.747-2.83 2.715-3.819.672-.689 1.409-1.266 2.269-1.82l-.364-.67c-.988.63-1.758 1.248-2.453 1.96-.958.976-1.805 2.165-2.83 3.974a86 86 0 0 0-1.827 3.447c-.357.706-.793 1.277-1.261 1.65-.362.288-.717.45-1.085.492q-.108.002-.206.003h-.141c-.362-.041-.713-.203-1.07-.49-.458-.368-.889-.936-1.244-1.647-.516-1.032-.923-1.83-1.281-2.505l-.635.431zm-5.557-6.573c.916.58 1.679 1.16 2.366 1.854.715.715 1.33 1.53 1.959 2.544l.619-.448c-.68-1.09-1.319-1.913-2.034-2.632-.674-.678-1.426-1.275-2.436-1.92zm22.086-9.541c.689.363 1.454.756 2.318 1.195.744.377 1.333.833 1.701 1.324.297.397.447.784.455 1.179v.096c-.021.392-.175.767-.47 1.148-.362.466-.929.903-1.644 1.265l-.024.01c-1.01.498-1.855.92-2.598 1.31l.327.687c.767-.403 1.625-.83 2.609-1.314l-.007.005h.005c.89-.446 1.527-.965 1.939-1.497.409-.53.6-1.06.626-1.577v.026-.16999999999999998c-.011-.53-.197-1.07-.609-1.622-.409-.543-1.059-1.086-1.963-1.547-.852-.432-1.619-.822-2.312-1.19l-.353.674zm-23.382-1.267.013-.01-.013.006c-1.006.577-2.167 1.156-3.532 1.803-.884.415-1.512.913-1.922 1.425-.405.513-.598 1.03-.628 1.545 0 .073-.005.133-.005.17v.004c.011.534.2 1.09.616 1.65.418.56 1.068 1.113 1.969 1.585 1.019.528 1.903.986 2.685 1.409l.423-.638c-.785-.426-1.667-.885-2.709-1.424l-.043-.021c-.739-.388-1.333-.86-1.71-1.366-.297-.402-.455-.812-.464-1.212v-.043l.005-.1c.021-.353.173-.719.466-1.087.361-.454.933-.874 1.646-1.208 1.576-.748 2.642-1.29 3.563-1.814q.01-.006.021-.013c1.656-.941 2.856-1.83 3.887-2.888 1.025-1.045 1.903-2.27 2.848-3.974.481-.87.996-1.893 1.675-3.32.331-.705.745-1.272 1.2-1.642.347-.282.709-.448 1.077-.491h.087l.171-.007h.032l.061.005c.353.032.737.198 1.105.495.466.373.895.946 1.242 1.656.632 1.301 1.159 2.36 1.677 3.298 1.003 1.818 1.874 3.034 2.912 4.064.778.775 1.673 1.462 2.875 2.201l.33-.689c-1.04-.642-1.901-1.286-2.668-2.05-1.033-1.026-1.87-2.245-2.782-3.895-.513-.928-1.042-1.994-1.66-3.26-.422-.87-.929-1.504-1.449-1.917-.516-.414-1.038-.618-1.55-.662l-.082-.004h-.058c-.087 0-.189.004-.297.007-.499.051-1.008.254-1.511.663-.509.411-1.001 1.04-1.406 1.906a60 60 0 0 1-1.653 3.276c-.858 1.549-1.701 2.766-2.724 3.81-1.022 1.047-2.21 1.902-3.718 2.76M51.269 43.405h1.226l-4.34 10.106h-1.01l-4.34-10.106h1.27l3.59 8.643 3.606-8.643zM66.109 44.437H59.95v3.427h5.508v1.031H59.95v3.513h6.23v1.032h-7.37V43.405h7.298zM80.226 43.405h1.11V53.44h-.909l-6.517-8.228v8.228H72.8V43.405h1.066l6.36 8.043zM92.024 53.44H88.52V43.405h3.504c3.172 0 5.365 2.165 5.365 5.004s-2.193 5.03-5.365 5.03m0-8.988H89.66v7.941h2.364c2.553 0 4.182-1.72 4.182-3.956s-1.63-3.985-4.182-3.985M112.862 53.44h-1.226l-1.183-2.651h-5.495l-1.196 2.651h-1.168l4.6-10.105h1.066l4.6 10.105zm-5.148-8.787-2.308 5.117h4.6zM122.598 47.877c2.249.487 3.287 1.305 3.287 2.852 0 1.733-1.443 2.851-3.447 2.851-1.601 0-2.912-.53-4.124-1.604l.707-.832c1.053.946 2.063 1.42 3.46 1.42 1.398 0 2.249-.702 2.249-1.721 0-.946-.505-1.476-2.624-1.921-2.32-.502-3.389-1.247-3.389-2.91s1.4-2.753 3.318-2.753c1.471 0 2.524.416 3.547 1.232l-.663.875c-.936-.76-1.874-1.09-2.912-1.09-1.313 0-2.15.717-2.15 1.635 0 .917.52 1.49 2.739 1.964z"/></svg>